<svg width="14" height="18" viewBox="0 0 14 18" fill="none" xmlns="http://www.w3.org/2000/svg">
<path fill-rule="evenodd" clip-rule="evenodd" d="M1 6.0006C1 2.68656 3.68656 0 7.0006 0C10.3146 0 13.0012 2.68656 13.0012 6.0006C13.0012 9.31463 10.3146 12.0012 7.0006 12.0012C3.68656 12.0012 1 9.31463 1 6.0006Z" fill="#D9614C"/>
<path d="M2.11003 11.0099L1.14636 13.9009C0.287161 16.4785 3.02287 18.7795 5.41514 17.4913L6.52669 16.8928C6.8227 16.7334 7.17898 16.7334 7.47499 16.8928L8.58655 17.4913C10.9788 18.7795 13.7145 16.4785 12.8553 13.9009L11.8915 11.0095C10.6296 12.2419 8.9038 13.0014 7.0006 13.0014C5.09758 13.0014 3.37191 12.2421 2.11003 11.0099Z" fill="#D9614C"/>
</svg>
