<svg width="16" height="16" viewBox="0 0 16 16" fill="none" xmlns="http://www.w3.org/2000/svg">
<path fill-rule="evenodd" clip-rule="evenodd" d="M15.0188 4.87995C16.3065 3.58704 16.2519 1.88921 15.2902 0.849461C14.8213 0.342478 14.154 0.0186372 13.398 0.000781662C12.6393 -0.0171395 11.8533 0.273015 11.1279 0.879877C11.1094 0.895398 11.0915 0.911753 11.0745 0.928891L0.699562 11.3453C0.251543 11.7951 0 12.4041 0 13.0389V14.3937C0 15.2749 0.713569 16 1.60305 16H2.94609C3.58426 16 4.19615 15.7458 4.64651 15.2937L15.0188 4.87995ZM12.3071 2.89293C11.9165 2.50241 11.2834 2.5024 10.8928 2.89293C10.5023 3.28345 10.5023 3.91661 10.8928 4.30714L11.6928 5.10714C12.0834 5.49767 12.7165 5.49767 13.107 5.10715C13.4976 4.71662 13.4976 4.08346 13.1071 3.69293L12.3071 2.89293Z" fill="#D9614C"/>
</svg>
